{
	"asset":{
		"generator":"Khronos glTF Blender I/O v4.2.57",
		"version":"2.0"
	},
	"scene":0,
	"scenes":[
		{
			"name":"Scene",
			"nodes":[
				6
			]
		}
	],
	"nodes":[
		{
			"name":"Bone.004",
			"translation":[
				0,
				0.3999999761581421,
				0
			]
		},
		{
			"children":[
				0
			],
			"name":"Bone.003",
			"translation":[
				0,
				0.40000003576278687,
				0
			]
		},
		{
			"children":[
				1
			],
			"name":"Bone.002",
			"translation":[
				0,
				0.4000000059604645,
				0
			]
		},
		{
			"children":[
				2
			],
			"name":"Bone.001",
			"translation":[
				0,
				0.4000000059604645,
				0
			]
		},
		{
			"children":[
				3
			],
			"name":"Bone"
		},
		{
			"mesh":0,
			"name":"Cube",
			"skin":0
		},
		{
			"children":[
				5,
				4
			],
			"name":"Armature"
		}
	],
	"materials":[
		{
			"doubleSided":true,
			"name":"Material",
			"pbrMetallicRoughness":{
				"baseColorFactor":[
					0.800000011920929,
					0.800000011920929,
					0.800000011920929,
					1
				],
				"metallicFactor":0,
				"roughnessFactor":0.5
			}
		}
	],
	"meshes":[
		{
			"name":"Cube",
			"primitives":[
				{
					"attributes":{
						"POSITION":0,
						"NORMAL":1,
						"TEXCOORD_0":2,
						"JOINTS_0":3,
						"WEIGHTS_0":4
					},
					"indices":5,
					"material":0
				}
			]
		}
	],
	"skins":[
		{
			"inverseBindMatrices":6,
			"joints":[
				4,
				3,
				2,
				1,
				0
			],
			"name":"Armature"
		}
	],
	"accessors":[
		{
			"bufferView":0,
			"componentType":5126,
			"count":104,
			"max":[
				0.24002110958099365,
				2.032878875732422,
				0.24002110958099365
			],
			"min":[
				-0.24002110958099365,
				0.0011013448238372803,
				-0.24002110958099365
			],
			"type":"VEC3"
		},
		{
			"bufferView":1,
			"componentType":5126,
			"count":104,
			"type":"VEC3"
		},
		{
			"bufferView":2,
			"componentType":5126,
			"count":104,
			"type":"VEC2"
		},
		{
			"bufferView":3,
			"componentType":5121,
			"count":104,
			"type":"VEC4"
		},
		{
			"bufferView":4,
			"componentType":5126,
			"count":104,
			"type":"VEC4"
		},
		{
			"bufferView":5,
			"componentType":5123,
			"count":276,
			"type":"SCALAR"
		},
		{
			"bufferView":6,
			"componentType":5126,
			"count":5,
			"type":"MAT4"
		}
	],
	"bufferViews":[
		{
			"buffer":0,
			"byteLength":1248,
			"byteOffset":0,
			"target":34962
		},
		{
			"buffer":0,
			"byteLength":1248,
			"byteOffset":1248,
			"target":34962
		},
		{
			"buffer":0,
			"byteLength":832,
			"byteOffset":2496,
			"target":34962
		},
		{
			"buffer":0,
			"byteLength":416,
			"byteOffset":3328,
			"target":34962
		},
		{
			"buffer":0,
			"byteLength":1664,
			"byteOffset":3744,
			"target":34962
		},
		{
			"buffer":0,
			"byteLength":552,
			"byteOffset":5408,
			"target":34963
		},
		{
			"buffer":0,
			"byteLength":320,
			"byteOffset":5960
		}
	],
	"buffers":[
		{
			"byteLength":6280,
			"uri":"bone.bin"
		}
	]
}
